<?xml version="1.0" encoding="utf-8"?>
<!-- Generator: Adobe Illustrator 26.5.0, SVG Export Plug-In . SVG Version: 6.00 Build 0)  -->
<svg version="1.1" id="Calque_1" xmlns="http://www.w3.org/2000/svg" xmlns:xlink="http://www.w3.org/1999/xlink" x="0px" y="0px"
	 viewBox="0 0 512 512" style="enable-background:new 0 0 512 512;" xml:space="preserve">
<style type="text/css">
	.st0{fill:#EE404C;}
	.st1{fill:#FFF7ED;}
</style>
<g>
	<path class="st0" d="M229.4,106.2l-149,258.1c-8.5,14.7-3.4,33.4,11.2,41.9c4.7,2.7,10,4.1,15.3,4.1H405
		c16.9,0,30.7-13.7,30.7-30.7c0-5.4-1.4-10.7-4.1-15.3l-149-258.1c-8.5-14.7-27.2-19.7-41.9-11.2C236,97.6,232.1,101.5,229.4,106.2z
		"/>
	<g>
		<path class="st1" d="M254.1,185.8h3.9c9.6,0,17.3,7.8,17.3,17.3V286c0,9.6-7.8,17.3-17.3,17.3h-3.9c-9.6,0-17.3-7.8-17.3-17.3
			v-82.8C236.7,193.5,244.5,185.8,254.1,185.8z"/>
		<path class="st1" d="M256,330.4c10.6,0,19.3,8.6,19.3,19.3S266.6,369,256,369s-19.3-8.6-19.3-19.3c0-5,1.9-9.5,5-13
			C245.2,332.9,250.3,330.4,256,330.4z"/>
	</g>
</g>
</svg>
