<?xml version="1.0" encoding="utf-8"?>
<!-- Generator: Adobe Illustrator 26.5.0, SVG Export Plug-In . SVG Version: 6.00 Build 0)  -->
<svg version="1.1" id="Calque_1" xmlns="http://www.w3.org/2000/svg" xmlns:xlink="http://www.w3.org/1999/xlink" x="0px" y="0px"
	 viewBox="0 0 512 512" style="enable-background:new 0 0 512 512;" xml:space="preserve">
<style type="text/css">
	.st0{fill:#00BBD3;}
	.st1{fill:#D4E1F4;}
	.st2{fill:#4DCFE0;}
	.st3{fill:#8D9CA8;}
	.st4{fill:#FE646F;}
	.st5{fill:#9FACBA;}
	.st6{fill:#FD4755;}
	.st7{fill:#BFE3F4;}
</style>
<g>
	<path class="st0" d="M111.8,161.9l140.5-66.3h-39.7l-60.1-51.2c-2.6-2.6-6.3-3.7-9.9-3.7H43.9c-8.9,0-15.7,6.8-15.7,15.7v105.5
		H111.8z"/>
	<path class="st0" d="M441,161.9h42.8v-50.7c0-8.9-6.8-15.7-15.7-15.7h-58.5L441,161.9z"/>
</g>
<path class="st1" d="M390.3,48c-4.2-8.9-15.1-13.1-24.5-8.4L100.4,165h344.8L390.3,48z"/>
<path class="st2" d="M500.6,164c-3.1-3.1-7.3-4.7-11.5-4.7h-5.2H441H111.8H28.3H23c-4.2,0-8.4,1.6-11.5,4.7s-4.7,7.3-4.2,11.5
	L23,459.7c0.5,8.4,7.3,14.6,15.7,14.6h434.7c8.4,0,15.1-6.3,15.7-14.6l15.7-284.2C504.7,171.3,503.2,167.1,500.6,164z"/>
<g>
	<path class="st3" d="M159.1,392.7l-19,9.4L113,347.4l19-9.4L159.1,392.7z"/>
	<path class="st4" d="M152.6,444.2l-30.3-61.3c-1.7-3.4-0.3-7.4,3-9l20.3-10c3.4-1.7,7.4-0.3,9,3l30.3,61.3c4.4,9,0.8,19.8-8.2,24.3
		C167.9,456.8,156.9,453.1,152.6,444.2z"/>
	<path class="st5" d="M94.8,213.9c33.1,0,54.5,24.6,56.1,26.6c15.8,19.2,16.5,40.5,16.5,46c0,31.2-20.3,50.6-23.4,53.4
		c-3.3,3-22.3,19.9-49.2,19.2c-33.7-0.9-72.6-29.2-72.6-72.6C22.2,246.4,54.7,213.9,94.8,213.9z"/>
	<path class="st1" d="M94.8,234.5c19.2,0,36.6,11.3,45.3,26.4c5.9,10.2,6.7,20.2,6.7,25.6c-0.1,22.9-15.6,37.2-17.5,38.9
		c-2.6,2.3-15.9,13.6-34.5,13.1c-24-0.7-52-20.8-52-52C42.8,257.8,66.1,234.5,94.8,234.5z"/>
	<path class="st3" d="M62.5,221.4c-35.9,17.8-50.7,61.4-32.9,97.4S91,369.5,127,351.7c2.1-1,4.3-2.2,6.2-3.5
		c-34.5,13.1-74.1-2-90.8-35.8s-4.7-74.4,26.7-93.9C66.8,219.4,64.7,220.4,62.5,221.4L62.5,221.4z"/>
	<path class="st6" d="M125.2,373.8c-3.4,1.7-4.7,5.7-3,9l30.3,61.3c4.4,9,15.3,12.6,24.3,8.2c2.2-1.1,4.2-2.6,5.7-4.5
		c-7,0.4-13.9-3.4-17.2-10L135,376.4c-1.7-3.4-0.3-7.4,3-9L125.2,373.8L125.2,373.8z"/>
	<path class="st7" d="M71.6,239.9c-25.7,12.7-36.3,44-23.6,69.8c12.7,25.7,44,36.3,69.8,23.6c1.8-0.9,3.4-1.8,5-2.9
		c-24.6,8.9-52.6-1.8-64.4-25.8c-11.9-24-3.5-52.8,18.6-66.9C75.2,238.3,73.4,239,71.6,239.9L71.6,239.9z"/>
</g>
<g>
	<path class="st1" d="M446.7,371v54H337.6c-17.1,0-29.6-4.1-37.7-12.3c-8.1-8.2-12.1-20.8-12.1-37.8v-30.6
		c0-19.2,4.2-33.1,12.6-41.8c8.4-8.6,21-13,37.8-13H382c1.9,0,3.6-0.5,5-1.6s2.1-2.8,2.1-5.2v-13.5c0-2.4-0.8-4.1-2.3-5.2
		s-3.3-1.6-5.2-1.6H295v-54h102.3c32.9,0,49.4,16.8,49.4,50.5v30.6c0,17.1-4.1,30.3-12.3,39.8c-8.2,9.5-20.7,14.2-37.5,14.2h-43
		c-3.1,0-5.3,0.7-6.6,2c-1.3,1.3-2,3.6-2,6.9v9.6c0,3.3,0.7,5.6,2.1,6.9s3.4,2,6,2h93.3V371z"/>
</g>
<g>
	<path class="st1" d="M233.9,385.1c1.7-1.9,3.3-3.8,5-5.7c1.7-1.9,3.3-3.8,5-5.7c0.6-0.6,1-1.4,1.3-2.4c0.3-1.1,0.5-2.1,0.5-3.1
		v-51.4h27v52.9c0,2.9-0.4,5.4-1.1,7.4c-0.7,2.1-2,4.2-3.9,6.4l-33.9,37.4l-33.7-37.4c-1.9-2-3.2-4.1-3.9-6.3
		c-0.7-2.2-1.1-4.6-1.1-7.4v-53.1h27v51.6c0,1,0.1,2,0.4,3c0.3,1,0.7,1.8,1.3,2.3L233.9,385.1z"/>
</g>
</svg>
