<?xml version="1.0" encoding="utf-8"?>
<!-- Generator: Adobe Illustrator 26.5.0, SVG Export Plug-In . SVG Version: 6.00 Build 0)  -->
<svg version="1.1" id="Calque_1" xmlns="http://www.w3.org/2000/svg" xmlns:xlink="http://www.w3.org/1999/xlink" x="0px" y="0px"
	 viewBox="0 0 512 512" style="enable-background:new 0 0 512 512;" xml:space="preserve">
<style type="text/css">
	.st0{fill:#3199EB;}
	.st1{fill:#EAF6FF;}
</style>
<path class="st0" d="M256,32c123.7,0,224,100.3,224,224S379.7,480,256,480S32,379.7,32,256c0-59.3,23-113.2,60.6-153.2
	C133.5,59.2,191.6,32,256,32z"/>
<g>
	<path class="st1" d="M319,196.6c-6.3-34.8-39.5-57.9-74.3-51.6c-22.6,4.1-41.3,20-49,41.7c-2.8,8.4,1.7,17.4,10.1,20.2
		c8.1,2.7,17-1.5,20-9.5c5.9-16.7,24.2-25.4,40.8-19.5c16.7,5.9,25.4,24.2,19.5,40.8c-3,8.5-9.5,15.4-17.9,18.9
		c-17.4,7.5-28.6,24.8-28.3,43.7v6.7c0,8.8,7.2,16,16,16c8.8,0,16-7.2,16-16v-6.7c-0.2-6,3.1-11.5,8.5-14.2
		C308.4,255.7,324.5,226.3,319,196.6z"/>
	<path class="st1" d="M256,320c-8.8,0-16,7.2-16,16v16c0,8.8,7.2,16,16,16c8.8,0,16-7.2,16-16v-16c0-5-2.3-9.5-5.9-12.4
		C263.3,321.3,259.8,320,256,320z"/>
</g>
</svg>
